<svg width="14" height="15" viewBox="0 0 14 15" fill="none" xmlns="http://www.w3.org/2000/svg">
<path d="M10.4533 7.27828C10.4256 7.20667 10.3839 7.14126 10.3308 7.08578L7.41417 4.16911C7.35978 4.11472 7.29521 4.07158 7.22415 4.04214C7.15308 4.01271 7.07692 3.99756 7 3.99756C6.84466 3.99756 6.69568 4.05927 6.58583 4.16911C6.53144 4.2235 6.4883 4.28807 6.45887 4.35913C6.42943 4.4302 6.41428 4.50636 6.41428 4.58328C6.41428 4.73862 6.47599 4.8876 6.58583 4.99745L8.51083 6.91661H4.08333C3.92862 6.91661 3.78025 6.97807 3.67085 7.08747C3.56146 7.19686 3.5 7.34524 3.5 7.49995C3.5 7.65465 3.56146 7.80303 3.67085 7.91242C3.78025 8.02182 3.92862 8.08328 4.08333 8.08328H8.51083L6.58583 10.0024C6.53116 10.0567 6.48776 10.1212 6.45815 10.1923C6.42853 10.2634 6.41328 10.3396 6.41328 10.4166C6.41328 10.4936 6.42853 10.5699 6.45815 10.6409C6.48776 10.712 6.53116 10.7765 6.58583 10.8308C6.64006 10.8855 6.70458 10.9289 6.77566 10.9585C6.84675 10.9881 6.92299 11.0033 7 11.0033C7.07701 11.0033 7.15325 10.9881 7.22434 10.9585C7.29542 10.9289 7.35994 10.8855 7.41417 10.8308L10.3308 7.91411C10.3839 7.85863 10.4256 7.79322 10.4533 7.72161C10.5117 7.57959 10.5117 7.4203 10.4533 7.27828Z" fill="#F7F7F7"/>
</svg>
